<svg xmlns="http://www.w3.org/2000/svg" xmlns:xlink="http://www.w3.org/1999/xlink" xmlns:s="https://github.com/nturley/netlistsvg" width="405" height="1556.5">
  <style>svg {
    stroke:#000;
    fill:none;
  }
  text {
    fill:#000;
    stroke:none;
    font-size:10px;
    font-weight: bold;
    font-family: "Courier New", monospace;
  }
  .nodelabel {
    text-anchor: middle;
  }
  .inputPortLabel {
    text-anchor: end;
  }
  .splitjoinBody {
    fill:#000;
  }</style>
  <g s:type="generic" transform="translate(84,139.5)" s:width="30" s:height="40" id="cell_\243">
    <text x="15" y="-4" class="nodelabel cell_\243" s:attribute="ref">$gt</text>
    <rect width="30" height="40" s:generic="body" class="cell_\243"/>
    <g transform="translate(0,10)" s:x="0" s:y="10" s:pid="in0" id="port_\243~A">
      <text x="-3" y="-4" class="inputPortLabel cell_\243">A</text>
    </g>
    <g transform="translate(0,30)" s:x="0" s:y="10" s:pid="in0" id="port_\243~B">
      <text x="-3" y="-4" class="inputPortLabel cell_\243">B</text>
    </g>
    <g transform="translate(30,10)" s:x="30" s:y="10" s:pid="out0" id="port_\243~Y">
      <text x="5" y="-4" style="fill:#000; stroke:none" class="cell_\243">Y</text>
    </g>
  </g>
  <g s:type="mux" transform="translate(157,100)" s:width="20" s:height="40" id="cell_\244">
    <s:alias val="$pmux"/>
    <s:alias val="$mux"/>
    <s:alias val="$_MUX_"/>
    <path d="M0,0 L20,10 L20,30 L0,40 Z" class="cell_\244"/>
    <g s:x="0" s:y="10" s:pid="A"/>
    <g s:x="0" s:y="30" s:pid="B"/>
    <g s:x="10" s:y="35" s:pid="S"/>
    <g s:x="20" s:y="20" s:pid="Y"/>
  </g>
  <g s:type="generic" transform="translate(84,51.5)" s:width="30" s:height="40" id="cell_\248">
    <text x="15" y="-4" class="nodelabel cell_\248" s:attribute="ref">$gt</text>
    <rect width="30" height="40" s:generic="body" class="cell_\248"/>
    <g transform="translate(0,10)" s:x="0" s:y="10" s:pid="in0" id="port_\248~A">
      <text x="-3" y="-4" class="inputPortLabel cell_\248">A</text>
    </g>
    <g transform="translate(0,30)" s:x="0" s:y="10" s:pid="in0" id="port_\248~B">
      <text x="-3" y="-4" class="inputPortLabel cell_\248">B</text>
    </g>
    <g transform="translate(30,10)" s:x="30" s:y="10" s:pid="out0" id="port_\248~Y">
      <text x="5" y="-4" style="fill:#000; stroke:none" class="cell_\248">Y</text>
    </g>
  </g>
  <g s:type="mux" transform="translate(157,12)" s:width="20" s:height="40" id="cell_\249">
    <s:alias val="$pmux"/>
    <s:alias val="$mux"/>
    <s:alias val="$_MUX_"/>
    <path d="M0,0 L20,10 L20,30 L0,40 Z" class="cell_\249"/>
    <g s:x="0" s:y="10" s:pid="A"/>
    <g s:x="0" s:y="30" s:pid="B"/>
    <g s:x="10" s:y="35" s:pid="S"/>
    <g s:x="20" s:y="20" s:pid="Y"/>
  </g>
  <g s:type="generic" transform="translate(84,227.5)" s:width="30" s:height="40" id="cell_\253">
    <text x="15" y="-4" class="nodelabel cell_\253" s:attribute="ref">$gt</text>
    <rect width="30" height="40" s:generic="body" class="cell_\253"/>
    <g transform="translate(0,10)" s:x="0" s:y="10" s:pid="in0" id="port_\253~A">
      <text x="-3" y="-4" class="inputPortLabel cell_\253">A</text>
    </g>
    <g transform="translate(0,30)" s:x="0" s:y="10" s:pid="in0" id="port_\253~B">
      <text x="-3" y="-4" class="inputPortLabel cell_\253">B</text>
    </g>
    <g transform="translate(30,10)" s:x="30" s:y="10" s:pid="out0" id="port_\253~Y">
      <text x="5" y="-4" style="fill:#000; stroke:none" class="cell_\253">Y</text>
    </g>
  </g>
  <g s:type="mux" transform="translate(157,188)" s:width="20" s:height="40" id="cell_\254">
    <s:alias val="$pmux"/>
    <s:alias val="$mux"/>
    <s:alias val="$_MUX_"/>
    <path d="M0,0 L20,10 L20,30 L0,40 Z" class="cell_\254"/>
    <g s:x="0" s:y="10" s:pid="A"/>
    <g s:x="0" s:y="30" s:pid="B"/>
    <g s:x="10" s:y="35" s:pid="S"/>
    <g s:x="20" s:y="20" s:pid="Y"/>
  </g>
  <g s:type="generic" transform="translate(84,315.5)" s:width="30" s:height="40" id="cell_\258">
    <text x="15" y="-4" class="nodelabel cell_\258" s:attribute="ref">$gt</text>
    <rect width="30" height="40" s:generic="body" class="cell_\258"/>
    <g transform="translate(0,10)" s:x="0" s:y="10" s:pid="in0" id="port_\258~A">
      <text x="-3" y="-4" class="inputPortLabel cell_\258">A</text>
    </g>
    <g transform="translate(0,30)" s:x="0" s:y="10" s:pid="in0" id="port_\258~B">
      <text x="-3" y="-4" class="inputPortLabel cell_\258">B</text>
    </g>
    <g transform="translate(30,10)" s:x="30" s:y="10" s:pid="out0" id="port_\258~Y">
      <text x="5" y="-4" style="fill:#000; stroke:none" class="cell_\258">Y</text>
    </g>
  </g>
  <g s:type="mux" transform="translate(157,276)" s:width="20" s:height="40" id="cell_\259">
    <s:alias val="$pmux"/>
    <s:alias val="$mux"/>
    <s:alias val="$_MUX_"/>
    <path d="M0,0 L20,10 L20,30 L0,40 Z" class="cell_\259"/>
    <g s:x="0" s:y="10" s:pid="A"/>
    <g s:x="0" s:y="30" s:pid="B"/>
    <g s:x="10" s:y="35" s:pid="S"/>
    <g s:x="20" s:y="20" s:pid="Y"/>
  </g>
  <g s:type="generic" transform="translate(84,403.5)" s:width="30" s:height="40" id="cell_\263">
    <text x="15" y="-4" class="nodelabel cell_\263" s:attribute="ref">$gt</text>
    <rect width="30" height="40" s:generic="body" class="cell_\263"/>
    <g transform="translate(0,10)" s:x="0" s:y="10" s:pid="in0" id="port_\263~A">
      <text x="-3" y="-4" class="inputPortLabel cell_\263">A</text>
    </g>
    <g transform="translate(0,30)" s:x="0" s:y="10" s:pid="in0" id="port_\263~B">
      <text x="-3" y="-4" class="inputPortLabel cell_\263">B</text>
    </g>
    <g transform="translate(30,10)" s:x="30" s:y="10" s:pid="out0" id="port_\263~Y">
      <text x="5" y="-4" style="fill:#000; stroke:none" class="cell_\263">Y</text>
    </g>
  </g>
  <g s:type="mux" transform="translate(157,364)" s:width="20" s:height="40" id="cell_\264">
    <s:alias val="$pmux"/>
    <s:alias val="$mux"/>
    <s:alias val="$_MUX_"/>
    <path d="M0,0 L20,10 L20,30 L0,40 Z" class="cell_\264"/>
    <g s:x="0" s:y="10" s:pid="A"/>
    <g s:x="0" s:y="30" s:pid="B"/>
    <g s:x="10" s:y="35" s:pid="S"/>
    <g s:x="20" s:y="20" s:pid="Y"/>
  </g>
  <g s:type="generic" transform="translate(84,491.5)" s:width="30" s:height="40" id="cell_\268">
    <text x="15" y="-4" class="nodelabel cell_\268" s:attribute="ref">$gt</text>
    <rect width="30" height="40" s:generic="body" class="cell_\268"/>
    <g transform="translate(0,10)" s:x="0" s:y="10" s:pid="in0" id="port_\268~A">
      <text x="-3" y="-4" class="inputPortLabel cell_\268">A</text>
    </g>
    <g transform="translate(0,30)" s:x="0" s:y="10" s:pid="in0" id="port_\268~B">
      <text x="-3" y="-4" class="inputPortLabel cell_\268">B</text>
    </g>
    <g transform="translate(30,10)" s:x="30" s:y="10" s:pid="out0" id="port_\268~Y">
      <text x="5" y="-4" style="fill:#000; stroke:none" class="cell_\268">Y</text>
    </g>
  </g>
  <g s:type="mux" transform="translate(157,452)" s:width="20" s:height="40" id="cell_\269">
    <s:alias val="$pmux"/>
    <s:alias val="$mux"/>
    <s:alias val="$_MUX_"/>
    <path d="M0,0 L20,10 L20,30 L0,40 Z" class="cell_\269"/>
    <g s:x="0" s:y="10" s:pid="A"/>
    <g s:x="0" s:y="30" s:pid="B"/>
    <g s:x="10" s:y="35" s:pid="S"/>
    <g s:x="20" s:y="20" s:pid="Y"/>
  </g>
  <g s:type="generic" transform="translate(84,579.5)" s:width="30" s:height="40" id="cell_\273">
    <text x="15" y="-4" class="nodelabel cell_\273" s:attribute="ref">$gt</text>
    <rect width="30" height="40" s:generic="body" class="cell_\273"/>
    <g transform="translate(0,10)" s:x="0" s:y="10" s:pid="in0" id="port_\273~A">
      <text x="-3" y="-4" class="inputPortLabel cell_\273">A</text>
    </g>
    <g transform="translate(0,30)" s:x="0" s:y="10" s:pid="in0" id="port_\273~B">
      <text x="-3" y="-4" class="inputPortLabel cell_\273">B</text>
    </g>
    <g transform="translate(30,10)" s:x="30" s:y="10" s:pid="out0" id="port_\273~Y">
      <text x="5" y="-4" style="fill:#000; stroke:none" class="cell_\273">Y</text>
    </g>
  </g>
  <g s:type="mux" transform="translate(157,540)" s:width="20" s:height="40" id="cell_\274">
    <s:alias val="$pmux"/>
    <s:alias val="$mux"/>
    <s:alias val="$_MUX_"/>
    <path d="M0,0 L20,10 L20,30 L0,40 Z" class="cell_\274"/>
    <g s:x="0" s:y="10" s:pid="A"/>
    <g s:x="0" s:y="30" s:pid="B"/>
    <g s:x="10" s:y="35" s:pid="S"/>
    <g s:x="20" s:y="20" s:pid="Y"/>
  </g>
  <g s:type="generic" transform="translate(84,732.5)" s:width="30" s:height="40" id="cell_\278">
    <text x="15" y="-4" class="nodelabel cell_\278" s:attribute="ref">$gt</text>
    <rect width="30" height="40" s:generic="body" class="cell_\278"/>
    <g transform="translate(0,10)" s:x="0" s:y="10" s:pid="in0" id="port_\278~A">
      <text x="-3" y="-4" class="inputPortLabel cell_\278">A</text>
    </g>
    <g transform="translate(0,30)" s:x="0" s:y="10" s:pid="in0" id="port_\278~B">
      <text x="-3" y="-4" class="inputPortLabel cell_\278">B</text>
    </g>
    <g transform="translate(30,10)" s:x="30" s:y="10" s:pid="out0" id="port_\278~Y">
      <text x="5" y="-4" style="fill:#000; stroke:none" class="cell_\278">Y</text>
    </g>
  </g>
  <g s:type="mux" transform="translate(157,667.5)" s:width="20" s:height="40" id="cell_\279">
    <s:alias val="$pmux"/>
    <s:alias val="$mux"/>
    <s:alias val="$_MUX_"/>
    <path d="M0,0 L20,10 L20,30 L0,40 Z" class="cell_\279"/>
    <g s:x="0" s:y="10" s:pid="A"/>
    <g s:x="0" s:y="30" s:pid="B"/>
    <g s:x="10" s:y="35" s:pid="S"/>
    <g s:x="20" s:y="20" s:pid="Y"/>
  </g>
  <g s:type="generic" transform="translate(84,885.5)" s:width="30" s:height="40" id="cell_\283">
    <text x="15" y="-4" class="nodelabel cell_\283" s:attribute="ref">$gt</text>
    <rect width="30" height="40" s:generic="body" class="cell_\283"/>
    <g transform="translate(0,10)" s:x="0" s:y="10" s:pid="in0" id="port_\283~A">
      <text x="-3" y="-4" class="inputPortLabel cell_\283">A</text>
    </g>
    <g transform="translate(0,30)" s:x="0" s:y="10" s:pid="in0" id="port_\283~B">
      <text x="-3" y="-4" class="inputPortLabel cell_\283">B</text>
    </g>
    <g transform="translate(30,10)" s:x="30" s:y="10" s:pid="out0" id="port_\283~Y">
      <text x="5" y="-4" style="fill:#000; stroke:none" class="cell_\283">Y</text>
    </g>
  </g>
  <g s:type="mux" transform="translate(157,800.5)" s:width="20" s:height="40" id="cell_\284">
    <s:alias val="$pmux"/>
    <s:alias val="$mux"/>
    <s:alias val="$_MUX_"/>
    <path d="M0,0 L20,10 L20,30 L0,40 Z" class="cell_\284"/>
    <g s:x="0" s:y="10" s:pid="A"/>
    <g s:x="0" s:y="30" s:pid="B"/>
    <g s:x="10" s:y="35" s:pid="S"/>
    <g s:x="20" s:y="20" s:pid="Y"/>
  </g>
  <g s:type="generic" transform="translate(84,973.5)" s:width="30" s:height="40" id="cell_\288">
    <text x="15" y="-4" class="nodelabel cell_\288" s:attribute="ref">$gt</text>
    <rect width="30" height="40" s:generic="body" class="cell_\288"/>
    <g transform="translate(0,10)" s:x="0" s:y="10" s:pid="in0" id="port_\288~A">
      <text x="-3" y="-4" class="inputPortLabel cell_\288">A</text>
    </g>
    <g transform="translate(0,30)" s:x="0" s:y="10" s:pid="in0" id="port_\288~B">
      <text x="-3" y="-4" class="inputPortLabel cell_\288">B</text>
    </g>
    <g transform="translate(30,10)" s:x="30" s:y="10" s:pid="out0" id="port_\288~Y">
      <text x="5" y="-4" style="fill:#000; stroke:none" class="cell_\288">Y</text>
    </g>
  </g>
  <g s:type="mux" transform="translate(157,934)" s:width="20" s:height="40" id="cell_\289">
    <s:alias val="$pmux"/>
    <s:alias val="$mux"/>
    <s:alias val="$_MUX_"/>
    <path d="M0,0 L20,10 L20,30 L0,40 Z" class="cell_\289"/>
    <g s:x="0" s:y="10" s:pid="A"/>
    <g s:x="0" s:y="30" s:pid="B"/>
    <g s:x="10" s:y="35" s:pid="S"/>
    <g s:x="20" s:y="20" s:pid="Y"/>
  </g>
  <g s:type="generic" transform="translate(84,1061.5)" s:width="30" s:height="40" id="cell_\293">
    <text x="15" y="-4" class="nodelabel cell_\293" s:attribute="ref">$gt</text>
    <rect width="30" height="40" s:generic="body" class="cell_\293"/>
    <g transform="translate(0,10)" s:x="0" s:y="10" s:pid="in0" id="port_\293~A">
      <text x="-3" y="-4" class="inputPortLabel cell_\293">A</text>
    </g>
    <g transform="translate(0,30)" s:x="0" s:y="10" s:pid="in0" id="port_\293~B">
      <text x="-3" y="-4" class="inputPortLabel cell_\293">B</text>
    </g>
    <g transform="translate(30,10)" s:x="30" s:y="10" s:pid="out0" id="port_\293~Y">
      <text x="5" y="-4" style="fill:#000; stroke:none" class="cell_\293">Y</text>
    </g>
  </g>
  <g s:type="mux" transform="translate(157,1022)" s:width="20" s:height="40" id="cell_\294">
    <s:alias val="$pmux"/>
    <s:alias val="$mux"/>
    <s:alias val="$_MUX_"/>
    <path d="M0,0 L20,10 L20,30 L0,40 Z" class="cell_\294"/>
    <g s:x="0" s:y="10" s:pid="A"/>
    <g s:x="0" s:y="30" s:pid="B"/>
    <g s:x="10" s:y="35" s:pid="S"/>
    <g s:x="20" s:y="20" s:pid="Y"/>
  </g>
  <g s:type="generic" transform="translate(84,1149.5)" s:width="30" s:height="40" id="cell_\298">
    <text x="15" y="-4" class="nodelabel cell_\298" s:attribute="ref">$gt</text>
    <rect width="30" height="40" s:generic="body" class="cell_\298"/>
    <g transform="translate(0,10)" s:x="0" s:y="10" s:pid="in0" id="port_\298~A">
      <text x="-3" y="-4" class="inputPortLabel cell_\298">A</text>
    </g>
    <g transform="translate(0,30)" s:x="0" s:y="10" s:pid="in0" id="port_\298~B">
      <text x="-3" y="-4" class="inputPortLabel cell_\298">B</text>
    </g>
    <g transform="translate(30,10)" s:x="30" s:y="10" s:pid="out0" id="port_\298~Y">
      <text x="5" y="-4" style="fill:#000; stroke:none" class="cell_\298">Y</text>
    </g>
  </g>
  <g s:type="mux" transform="translate(157,1110)" s:width="20" s:height="40" id="cell_\299">
    <s:alias val="$pmux"/>
    <s:alias val="$mux"/>
    <s:alias val="$_MUX_"/>
    <path d="M0,0 L20,10 L20,30 L0,40 Z" class="cell_\299"/>
    <g s:x="0" s:y="10" s:pid="A"/>
    <g s:x="0" s:y="30" s:pid="B"/>
    <g s:x="10" s:y="35" s:pid="S"/>
    <g s:x="20" s:y="20" s:pid="Y"/>
  </g>
  <g s:type="generic" transform="translate(84,1237.5)" s:width="30" s:height="40" id="cell_\303">
    <text x="15" y="-4" class="nodelabel cell_\303" s:attribute="ref">$gt</text>
    <rect width="30" height="40" s:generic="body" class="cell_\303"/>
    <g transform="translate(0,10)" s:x="0" s:y="10" s:pid="in0" id="port_\303~A">
      <text x="-3" y="-4" class="inputPortLabel cell_\303">A</text>
    </g>
    <g transform="translate(0,30)" s:x="0" s:y="10" s:pid="in0" id="port_\303~B">
      <text x="-3" y="-4" class="inputPortLabel cell_\303">B</text>
    </g>
    <g transform="translate(30,10)" s:x="30" s:y="10" s:pid="out0" id="port_\303~Y">
      <text x="5" y="-4" style="fill:#000; stroke:none" class="cell_\303">Y</text>
    </g>
  </g>
  <g s:type="mux" transform="translate(157,1198)" s:width="20" s:height="40" id="cell_\304">
    <s:alias val="$pmux"/>
    <s:alias val="$mux"/>
    <s:alias val="$_MUX_"/>
    <path d="M0,0 L20,10 L20,30 L0,40 Z" class="cell_\304"/>
    <g s:x="0" s:y="10" s:pid="A"/>
    <g s:x="0" s:y="30" s:pid="B"/>
    <g s:x="10" s:y="35" s:pid="S"/>
    <g s:x="20" s:y="20" s:pid="Y"/>
  </g>
  <g s:type="generic" transform="translate(84,1325.5)" s:width="30" s:height="40" id="cell_\308">
    <text x="15" y="-4" class="nodelabel cell_\308" s:attribute="ref">$gt</text>
    <rect width="30" height="40" s:generic="body" class="cell_\308"/>
    <g transform="translate(0,10)" s:x="0" s:y="10" s:pid="in0" id="port_\308~A">
      <text x="-3" y="-4" class="inputPortLabel cell_\308">A</text>
    </g>
    <g transform="translate(0,30)" s:x="0" s:y="10" s:pid="in0" id="port_\308~B">
      <text x="-3" y="-4" class="inputPortLabel cell_\308">B</text>
    </g>
    <g transform="translate(30,10)" s:x="30" s:y="10" s:pid="out0" id="port_\308~Y">
      <text x="5" y="-4" style="fill:#000; stroke:none" class="cell_\308">Y</text>
    </g>
  </g>
  <g s:type="mux" transform="translate(157,1286)" s:width="20" s:height="40" id="cell_\309">
    <s:alias val="$pmux"/>
    <s:alias val="$mux"/>
    <s:alias val="$_MUX_"/>
    <path d="M0,0 L20,10 L20,30 L0,40 Z" class="cell_\309"/>
    <g s:x="0" s:y="10" s:pid="A"/>
    <g s:x="0" s:y="30" s:pid="B"/>
    <g s:x="10" s:y="35" s:pid="S"/>
    <g s:x="20" s:y="20" s:pid="Y"/>
  </g>
  <g s:type="generic" transform="translate(84,1501.5)" s:width="30" s:height="40" id="cell_\313">
    <text x="15" y="-4" class="nodelabel cell_\313" s:attribute="ref">$gt</text>
    <rect width="30" height="40" s:generic="body" class="cell_\313"/>
    <g transform="translate(0,10)" s:x="0" s:y="10" s:pid="in0" id="port_\313~A">
      <text x="-3" y="-4" class="inputPortLabel cell_\313">A</text>
    </g>
    <g transform="translate(0,30)" s:x="0" s:y="10" s:pid="in0" id="port_\313~B">
      <text x="-3" y="-4" class="inputPortLabel cell_\313">B</text>
    </g>
    <g transform="translate(30,10)" s:x="30" s:y="10" s:pid="out0" id="port_\313~Y">
      <text x="5" y="-4" style="fill:#000; stroke:none" class="cell_\313">Y</text>
    </g>
  </g>
  <g s:type="mux" transform="translate(157,1434)" s:width="20" s:height="40" id="cell_\314">
    <s:alias val="$pmux"/>
    <s:alias val="$mux"/>
    <s:alias val="$_MUX_"/>
    <path d="M0,0 L20,10 L20,30 L0,40 Z" class="cell_\314"/>
    <g s:x="0" s:y="10" s:pid="A"/>
    <g s:x="0" s:y="30" s:pid="B"/>
    <g s:x="10" s:y="35" s:pid="S"/>
    <g s:x="20" s:y="20" s:pid="Y"/>
  </g>
  <g s:type="generic" transform="translate(84,1413.5)" s:width="30" s:height="40" id="cell_\318">
    <text x="15" y="-4" class="nodelabel cell_\318" s:attribute="ref">$gt</text>
    <rect width="30" height="40" s:generic="body" class="cell_\318"/>
    <g transform="translate(0,10)" s:x="0" s:y="10" s:pid="in0" id="port_\318~A">
      <text x="-3" y="-4" class="inputPortLabel cell_\318">A</text>
    </g>
    <g transform="translate(0,30)" s:x="0" s:y="10" s:pid="in0" id="port_\318~B">
      <text x="-3" y="-4" class="inputPortLabel cell_\318">B</text>
    </g>
    <g transform="translate(30,10)" s:x="30" s:y="10" s:pid="out0" id="port_\318~Y">
      <text x="5" y="-4" style="fill:#000; stroke:none" class="cell_\318">Y</text>
    </g>
  </g>
  <g s:type="mux" transform="translate(157,1346)" s:width="20" s:height="40" id="cell_\319">
    <s:alias val="$pmux"/>
    <s:alias val="$mux"/>
    <s:alias val="$_MUX_"/>
    <path d="M0,0 L20,10 L20,30 L0,40 Z" class="cell_\319"/>
    <g s:x="0" s:y="10" s:pid="A"/>
    <g s:x="0" s:y="30" s:pid="B"/>
    <g s:x="10" s:y="35" s:pid="S"/>
    <g s:x="20" s:y="20" s:pid="Y"/>
  </g>
  <g s:type="inputExt" transform="translate(12,733)" s:width="30" s:height="20" id="cell_count">
    <text x="15" y="-4" class="nodelabel cell_count" s:attribute="ref">count</text>
    <s:alias val="$_inputExt_"/>
    <path d="M0,0 L0,20 L15,20 L30,10 L15,0 Z" class="cell_count"/>
    <g s:x="28" s:y="10" s:pid="Y"/>
  </g>
  <g s:type="outputExt" transform="translate(345,1046)" s:width="30" s:height="20" id="cell_bargraph">
    <text x="15" y="-4" class="nodelabel cell_bargraph" s:attribute="ref">bargraph</text>
    <s:alias val="$_outputExt_"/>
    <path d="M30,0 L30,20 L15,20 L0,10 L15,0 Z" class="cell_bargraph"/>
    <g s:x="0" s:y="10" s:pid="A"/>
  </g>
  <g s:type="constant" transform="translate(12,160)" s:width="30" s:height="20" id="cell_00000">
    <text x="15" y="-4" class="nodelabel cell_00000" s:attribute="ref">0x0</text>
    <s:alias val="$_constant_"/>
    <rect width="30" height="20" class="cell_00000"/>
    <g s:x="30" s:y="10" s:pid="Y"/>
  </g>
  <g s:type="constant" transform="translate(84,667.5)" s:width="30" s:height="20" id="cell_0">
    <text x="15" y="-4" class="nodelabel cell_0" s:attribute="ref">0</text>
    <s:alias val="$_constant_"/>
    <rect width="30" height="20" class="cell_0"/>
    <g s:x="30" s:y="10" s:pid="Y"/>
  </g>
  <g s:type="constant" transform="translate(84,820.5)" s:width="30" s:height="20" id="cell_1">
    <text x="15" y="-4" class="nodelabel cell_1" s:attribute="ref">1</text>
    <s:alias val="$_constant_"/>
    <rect width="30" height="20" class="cell_1"/>
    <g s:x="30" s:y="10" s:pid="Y"/>
  </g>
  <g s:type="constant" transform="translate(12,72)" s:width="30" s:height="20" id="cell_00001">
    <text x="15" y="-4" class="nodelabel cell_00001" s:attribute="ref">0x1</text>
    <s:alias val="$_constant_"/>
    <rect width="30" height="20" class="cell_00001"/>
    <g s:x="30" s:y="10" s:pid="Y"/>
  </g>
  <g s:type="constant" transform="translate(12,248)" s:width="30" s:height="20" id="cell_00010">
    <text x="15" y="-4" class="nodelabel cell_00010" s:attribute="ref">0x2</text>
    <s:alias val="$_constant_"/>
    <rect width="30" height="20" class="cell_00010"/>
    <g s:x="30" s:y="10" s:pid="Y"/>
  </g>
  <g s:type="constant" transform="translate(12,336)" s:width="30" s:height="20" id="cell_00011">
    <text x="15" y="-4" class="nodelabel cell_00011" s:attribute="ref">0x3</text>
    <s:alias val="$_constant_"/>
    <rect width="30" height="20" class="cell_00011"/>
    <g s:x="30" s:y="10" s:pid="Y"/>
  </g>
  <g s:type="constant" transform="translate(12,424)" s:width="30" s:height="20" id="cell_00100">
    <text x="15" y="-4" class="nodelabel cell_00100" s:attribute="ref">0x4</text>
    <s:alias val="$_constant_"/>
    <rect width="30" height="20" class="cell_00100"/>
    <g s:x="30" s:y="10" s:pid="Y"/>
  </g>
  <g s:type="constant" transform="translate(12,512)" s:width="30" s:height="20" id="cell_00101">
    <text x="15" y="-4" class="nodelabel cell_00101" s:attribute="ref">0x5</text>
    <s:alias val="$_constant_"/>
    <rect width="30" height="20" class="cell_00101"/>
    <g s:x="30" s:y="10" s:pid="Y"/>
  </g>
  <g s:type="constant" transform="translate(12,600)" s:width="30" s:height="20" id="cell_00110">
    <text x="15" y="-4" class="nodelabel cell_00110" s:attribute="ref">0x6</text>
    <s:alias val="$_constant_"/>
    <rect width="30" height="20" class="cell_00110"/>
    <g s:x="30" s:y="10" s:pid="Y"/>
  </g>
  <g s:type="constant" transform="translate(12,668)" s:width="30" s:height="20" id="cell_00111">
    <text x="15" y="-4" class="nodelabel cell_00111" s:attribute="ref">0x7</text>
    <s:alias val="$_constant_"/>
    <rect width="30" height="20" class="cell_00111"/>
    <g s:x="30" s:y="10" s:pid="Y"/>
  </g>
  <g s:type="constant" transform="translate(12,906)" s:width="30" s:height="20" id="cell_01000">
    <text x="15" y="-4" class="nodelabel cell_01000" s:attribute="ref">0x8</text>
    <s:alias val="$_constant_"/>
    <rect width="30" height="20" class="cell_01000"/>
    <g s:x="30" s:y="10" s:pid="Y"/>
  </g>
  <g s:type="constant" transform="translate(12,994)" s:width="30" s:height="20" id="cell_01001">
    <text x="15" y="-4" class="nodelabel cell_01001" s:attribute="ref">0x9</text>
    <s:alias val="$_constant_"/>
    <rect width="30" height="20" class="cell_01001"/>
    <g s:x="30" s:y="10" s:pid="Y"/>
  </g>
  <g s:type="constant" transform="translate(12,1082)" s:width="30" s:height="20" id="cell_01010">
    <text x="15" y="-4" class="nodelabel cell_01010" s:attribute="ref">0xa</text>
    <s:alias val="$_constant_"/>
    <rect width="30" height="20" class="cell_01010"/>
    <g s:x="30" s:y="10" s:pid="Y"/>
  </g>
  <g s:type="constant" transform="translate(12,1170)" s:width="30" s:height="20" id="cell_01011">
    <text x="15" y="-4" class="nodelabel cell_01011" s:attribute="ref">0xb</text>
    <s:alias val="$_constant_"/>
    <rect width="30" height="20" class="cell_01011"/>
    <g s:x="30" s:y="10" s:pid="Y"/>
  </g>
  <g s:type="constant" transform="translate(12,1258)" s:width="30" s:height="20" id="cell_01100">
    <text x="15" y="-4" class="nodelabel cell_01100" s:attribute="ref">0xc</text>
    <s:alias val="$_constant_"/>
    <rect width="30" height="20" class="cell_01100"/>
    <g s:x="30" s:y="10" s:pid="Y"/>
  </g>
  <g s:type="constant" transform="translate(12,1346)" s:width="30" s:height="20" id="cell_01101">
    <text x="15" y="-4" class="nodelabel cell_01101" s:attribute="ref">0xd</text>
    <s:alias val="$_constant_"/>
    <rect width="30" height="20" class="cell_01101"/>
    <g s:x="30" s:y="10" s:pid="Y"/>
  </g>
  <g s:type="constant" transform="translate(12,1522)" s:width="30" s:height="20" id="cell_01110">
    <text x="15" y="-4" class="nodelabel cell_01110" s:attribute="ref">0xe</text>
    <s:alias val="$_constant_"/>
    <rect width="30" height="20" class="cell_01110"/>
    <g s:x="30" s:y="10" s:pid="Y"/>
  </g>
  <g s:type="constant" transform="translate(12,1434)" s:width="30" s:height="20" id="cell_01111">
    <text x="15" y="-4" class="nodelabel cell_01111" s:attribute="ref">0xf</text>
    <s:alias val="$_constant_"/>
    <rect width="30" height="20" class="cell_01111"/>
    <g s:x="30" s:y="10" s:pid="Y"/>
  </g>
  <g s:type="join" transform="translate(304,1035.5)" s:width="4" s:height="40" id="cell_$join$,7,8,9,10,11,12,13,14,15,16,17,18,19,20,21,22,">
    <rect width="5" height="320" class="splitjoinBody" s:generic="body"/>
    <s:alias val="$_join_"/>
    <g s:x="5" s:y="20" s:pid="out"/>
    <g transform="translate(0,10)" s:x="0" s:y="10" s:pid="in0">
      <text x="-3" y="-4" class="inputPortLabel">0</text>
    </g>
    <g transform="translate(0,30)" s:x="0" s:y="10" s:pid="in0">
      <text x="-3" y="-4" class="inputPortLabel">1</text>
    </g>
    <g transform="translate(0,50)" s:x="0" s:y="10" s:pid="in0">
      <text x="-3" y="-4" class="inputPortLabel">2</text>
    </g>
    <g transform="translate(0,70)" s:x="0" s:y="10" s:pid="in0">
      <text x="-3" y="-4" class="inputPortLabel">3</text>
    </g>
    <g transform="translate(0,90)" s:x="0" s:y="10" s:pid="in0">
      <text x="-3" y="-4" class="inputPortLabel">4</text>
    </g>
    <g transform="translate(0,110)" s:x="0" s:y="10" s:pid="in0">
      <text x="-3" y="-4" class="inputPortLabel">5</text>
    </g>
    <g transform="translate(0,130)" s:x="0" s:y="10" s:pid="in0">
      <text x="-3" y="-4" class="inputPortLabel">6</text>
    </g>
    <g transform="translate(0,150)" s:x="0" s:y="10" s:pid="in0">
      <text x="-3" y="-4" class="inputPortLabel">7</text>
    </g>
    <g transform="translate(0,170)" s:x="0" s:y="10" s:pid="in0">
      <text x="-3" y="-4" class="inputPortLabel">8</text>
    </g>
    <g transform="translate(0,190)" s:x="0" s:y="10" s:pid="in0">
      <text x="-3" y="-4" class="inputPortLabel">9</text>
    </g>
    <g transform="translate(0,210)" s:x="0" s:y="10" s:pid="in0">
      <text x="-3" y="-4" class="inputPortLabel">10</text>
    </g>
    <g transform="translate(0,230)" s:x="0" s:y="10" s:pid="in0">
      <text x="-3" y="-4" class="inputPortLabel">11</text>
    </g>
    <g transform="translate(0,250)" s:x="0" s:y="10" s:pid="in0">
      <text x="-3" y="-4" class="inputPortLabel">12</text>
    </g>
    <g transform="translate(0,270)" s:x="0" s:y="10" s:pid="in0">
      <text x="-3" y="-4" class="inputPortLabel">13</text>
    </g>
    <g transform="translate(0,290)" s:x="0" s:y="10" s:pid="in0">
      <text x="-3" y="-4" class="inputPortLabel">14</text>
    </g>
    <g transform="translate(0,310)" s:x="0" s:y="10" s:pid="in0">
      <text x="-3" y="-4" class="inputPortLabel">15</text>
    </g>
  </g>
  <line x1="40" x2="52" y1="743" y2="743" class="net_2,3,4,5,6"/>
  <line x1="52" x2="52" y1="743" y2="150" class="net_2,3,4,5,6"/>
  <circle cx="52" cy="743" r="2" style="fill:#000" class="net_2,3,4,5,6"/>
  <circle cx="52" cy="150" r="2" style="fill:#000" class="net_2,3,4,5,6"/>
  <line x1="52" x2="84" y1="150" y2="150" class="net_2,3,4,5,6"/>
  <line x1="40" x2="52" y1="743" y2="743" class="net_2,3,4,5,6"/>
  <line x1="52" x2="52" y1="743" y2="62" class="net_2,3,4,5,6"/>
  <line x1="52" x2="84" y1="62" y2="62" class="net_2,3,4,5,6"/>
  <line x1="40" x2="52" y1="743" y2="743" class="net_2,3,4,5,6"/>
  <line x1="52" x2="52" y1="743" y2="238" class="net_2,3,4,5,6"/>
  <circle cx="52" cy="238" r="2" style="fill:#000" class="net_2,3,4,5,6"/>
  <line x1="52" x2="84" y1="238" y2="238" class="net_2,3,4,5,6"/>
  <line x1="40" x2="52" y1="743" y2="743" class="net_2,3,4,5,6"/>
  <line x1="52" x2="52" y1="743" y2="326" class="net_2,3,4,5,6"/>
  <circle cx="52" cy="326" r="2" style="fill:#000" class="net_2,3,4,5,6"/>
  <line x1="52" x2="84" y1="326" y2="326" class="net_2,3,4,5,6"/>
  <line x1="40" x2="52" y1="743" y2="743" class="net_2,3,4,5,6"/>
  <line x1="52" x2="52" y1="743" y2="414" class="net_2,3,4,5,6"/>
  <circle cx="52" cy="414" r="2" style="fill:#000" class="net_2,3,4,5,6"/>
  <line x1="52" x2="84" y1="414" y2="414" class="net_2,3,4,5,6"/>
  <line x1="40" x2="52" y1="743" y2="743" class="net_2,3,4,5,6"/>
  <line x1="52" x2="52" y1="743" y2="502" class="net_2,3,4,5,6"/>
  <circle cx="52" cy="502" r="2" style="fill:#000" class="net_2,3,4,5,6"/>
  <line x1="52" x2="84" y1="502" y2="502" class="net_2,3,4,5,6"/>
  <line x1="40" x2="52" y1="743" y2="743" class="net_2,3,4,5,6"/>
  <line x1="52" x2="52" y1="743" y2="590" class="net_2,3,4,5,6"/>
  <circle cx="52" cy="590" r="2" style="fill:#000" class="net_2,3,4,5,6"/>
  <line x1="52" x2="84" y1="590" y2="590" class="net_2,3,4,5,6"/>
  <line x1="40" x2="84" y1="743" y2="743" class="net_2,3,4,5,6"/>
  <line x1="40" x2="52" y1="743" y2="743" class="net_2,3,4,5,6"/>
  <line x1="52" x2="52" y1="743" y2="896" class="net_2,3,4,5,6"/>
  <circle cx="52" cy="896" r="2" style="fill:#000" class="net_2,3,4,5,6"/>
  <line x1="52" x2="84" y1="896" y2="896" class="net_2,3,4,5,6"/>
  <line x1="40" x2="52" y1="743" y2="743" class="net_2,3,4,5,6"/>
  <line x1="52" x2="52" y1="743" y2="984" class="net_2,3,4,5,6"/>
  <circle cx="52" cy="984" r="2" style="fill:#000" class="net_2,3,4,5,6"/>
  <line x1="52" x2="84" y1="984" y2="984" class="net_2,3,4,5,6"/>
  <line x1="40" x2="52" y1="743" y2="743" class="net_2,3,4,5,6"/>
  <line x1="52" x2="52" y1="743" y2="1072" class="net_2,3,4,5,6"/>
  <circle cx="52" cy="1072" r="2" style="fill:#000" class="net_2,3,4,5,6"/>
  <line x1="52" x2="84" y1="1072" y2="1072" class="net_2,3,4,5,6"/>
  <line x1="40" x2="52" y1="743" y2="743" class="net_2,3,4,5,6"/>
  <line x1="52" x2="52" y1="743" y2="1160" class="net_2,3,4,5,6"/>
  <circle cx="52" cy="1160" r="2" style="fill:#000" class="net_2,3,4,5,6"/>
  <line x1="52" x2="84" y1="1160" y2="1160" class="net_2,3,4,5,6"/>
  <line x1="40" x2="52" y1="743" y2="743" class="net_2,3,4,5,6"/>
  <line x1="52" x2="52" y1="743" y2="1248" class="net_2,3,4,5,6"/>
  <circle cx="52" cy="1248" r="2" style="fill:#000" class="net_2,3,4,5,6"/>
  <line x1="52" x2="84" y1="1248" y2="1248" class="net_2,3,4,5,6"/>
  <line x1="40" x2="52" y1="743" y2="743" class="net_2,3,4,5,6"/>
  <line x1="52" x2="52" y1="743" y2="1336" class="net_2,3,4,5,6"/>
  <circle cx="52" cy="1336" r="2" style="fill:#000" class="net_2,3,4,5,6"/>
  <line x1="52" x2="84" y1="1336" y2="1336" class="net_2,3,4,5,6"/>
  <line x1="40" x2="52" y1="743" y2="743" class="net_2,3,4,5,6"/>
  <line x1="52" x2="52" y1="743" y2="1512" class="net_2,3,4,5,6"/>
  <line x1="52" x2="84" y1="1512" y2="1512" class="net_2,3,4,5,6"/>
  <line x1="40" x2="52" y1="743" y2="743" class="net_2,3,4,5,6"/>
  <line x1="52" x2="52" y1="743" y2="1424" class="net_2,3,4,5,6"/>
  <circle cx="52" cy="1424" r="2" style="fill:#000" class="net_2,3,4,5,6"/>
  <line x1="52" x2="84" y1="1424" y2="1424" class="net_2,3,4,5,6"/>
  <line x1="42" x2="84" y1="170" y2="170" class="net_39,40,41,42,43"/>
  <line x1="114" x2="142" y1="677.5" y2="677.5" class="net_44"/>
  <line x1="142" x2="142" y1="677.5" y2="110" class="net_44"/>
  <circle cx="142" cy="677.5" r="2" style="fill:#000" class="net_44"/>
  <circle cx="142" cy="110" r="2" style="fill:#000" class="net_44"/>
  <line x1="142" x2="157" y1="110" y2="110" class="net_44"/>
  <line x1="114" x2="142" y1="677.5" y2="677.5" class="net_44"/>
  <line x1="142" x2="142" y1="677.5" y2="22" class="net_44"/>
  <line x1="142" x2="157" y1="22" y2="22" class="net_44"/>
  <line x1="114" x2="142" y1="677.5" y2="677.5" class="net_44"/>
  <line x1="142" x2="142" y1="677.5" y2="198" class="net_44"/>
  <circle cx="142" cy="198" r="2" style="fill:#000" class="net_44"/>
  <line x1="142" x2="157" y1="198" y2="198" class="net_44"/>
  <line x1="114" x2="142" y1="677.5" y2="677.5" class="net_44"/>
  <line x1="142" x2="142" y1="677.5" y2="286" class="net_44"/>
  <circle cx="142" cy="286" r="2" style="fill:#000" class="net_44"/>
  <line x1="142" x2="157" y1="286" y2="286" class="net_44"/>
  <line x1="114" x2="142" y1="677.5" y2="677.5" class="net_44"/>
  <line x1="142" x2="142" y1="677.5" y2="374" class="net_44"/>
  <circle cx="142" cy="374" r="2" style="fill:#000" class="net_44"/>
  <line x1="142" x2="157" y1="374" y2="374" class="net_44"/>
  <line x1="114" x2="142" y1="677.5" y2="677.5" class="net_44"/>
  <line x1="142" x2="142" y1="677.5" y2="462" class="net_44"/>
  <circle cx="142" cy="462" r="2" style="fill:#000" class="net_44"/>
  <line x1="142" x2="157" y1="462" y2="462" class="net_44"/>
  <line x1="114" x2="142" y1="677.5" y2="677.5" class="net_44"/>
  <line x1="142" x2="142" y1="677.5" y2="550" class="net_44"/>
  <circle cx="142" cy="550" r="2" style="fill:#000" class="net_44"/>
  <line x1="142" x2="157" y1="550" y2="550" class="net_44"/>
  <line x1="114" x2="157" y1="677.5" y2="677.5" class="net_44"/>
  <line x1="114" x2="142" y1="677.5" y2="677.5" class="net_44"/>
  <line x1="142" x2="142" y1="677.5" y2="810.5" class="net_44"/>
  <circle cx="142" cy="810.5" r="2" style="fill:#000" class="net_44"/>
  <line x1="142" x2="157" y1="810.5" y2="810.5" class="net_44"/>
  <line x1="114" x2="142" y1="677.5" y2="677.5" class="net_44"/>
  <line x1="142" x2="142" y1="677.5" y2="944" class="net_44"/>
  <circle cx="142" cy="944" r="2" style="fill:#000" class="net_44"/>
  <line x1="142" x2="157" y1="944" y2="944" class="net_44"/>
  <line x1="114" x2="142" y1="677.5" y2="677.5" class="net_44"/>
  <line x1="142" x2="142" y1="677.5" y2="1032" class="net_44"/>
  <circle cx="142" cy="1032" r="2" style="fill:#000" class="net_44"/>
  <line x1="142" x2="157" y1="1032" y2="1032" class="net_44"/>
  <line x1="114" x2="142" y1="677.5" y2="677.5" class="net_44"/>
  <line x1="142" x2="142" y1="677.5" y2="1120" class="net_44"/>
  <circle cx="142" cy="1120" r="2" style="fill:#000" class="net_44"/>
  <line x1="142" x2="157" y1="1120" y2="1120" class="net_44"/>
  <line x1="114" x2="142" y1="677.5" y2="677.5" class="net_44"/>
  <line x1="142" x2="142" y1="677.5" y2="1208" class="net_44"/>
  <circle cx="142" cy="1208" r="2" style="fill:#000" class="net_44"/>
  <line x1="142" x2="157" y1="1208" y2="1208" class="net_44"/>
  <line x1="114" x2="142" y1="677.5" y2="677.5" class="net_44"/>
  <line x1="142" x2="142" y1="677.5" y2="1296" class="net_44"/>
  <circle cx="142" cy="1296" r="2" style="fill:#000" class="net_44"/>
  <line x1="142" x2="157" y1="1296" y2="1296" class="net_44"/>
  <line x1="114" x2="142" y1="677.5" y2="677.5" class="net_44"/>
  <line x1="142" x2="142" y1="677.5" y2="1444" class="net_44"/>
  <line x1="142" x2="157" y1="1444" y2="1444" class="net_44"/>
  <line x1="114" x2="142" y1="677.5" y2="677.5" class="net_44"/>
  <line x1="142" x2="142" y1="677.5" y2="1356" class="net_44"/>
  <circle cx="142" cy="1356" r="2" style="fill:#000" class="net_44"/>
  <line x1="142" x2="157" y1="1356" y2="1356" class="net_44"/>
  <line x1="114" x2="132" y1="830.5" y2="830.5" class="net_45"/>
  <line x1="132" x2="132" y1="830.5" y2="130" class="net_45"/>
  <circle cx="132" cy="830.5" r="2" style="fill:#000" class="net_45"/>
  <circle cx="132" cy="130" r="2" style="fill:#000" class="net_45"/>
  <line x1="132" x2="157" y1="130" y2="130" class="net_45"/>
  <line x1="114" x2="132" y1="830.5" y2="830.5" class="net_45"/>
  <line x1="132" x2="132" y1="830.5" y2="42" class="net_45"/>
  <line x1="132" x2="157" y1="42" y2="42" class="net_45"/>
  <line x1="114" x2="132" y1="830.5" y2="830.5" class="net_45"/>
  <line x1="132" x2="132" y1="830.5" y2="218" class="net_45"/>
  <circle cx="132" cy="218" r="2" style="fill:#000" class="net_45"/>
  <line x1="132" x2="157" y1="218" y2="218" class="net_45"/>
  <line x1="114" x2="132" y1="830.5" y2="830.5" class="net_45"/>
  <line x1="132" x2="132" y1="830.5" y2="306" class="net_45"/>
  <circle cx="132" cy="306" r="2" style="fill:#000" class="net_45"/>
  <line x1="132" x2="157" y1="306" y2="306" class="net_45"/>
  <line x1="114" x2="132" y1="830.5" y2="830.5" class="net_45"/>
  <line x1="132" x2="132" y1="830.5" y2="394" class="net_45"/>
  <circle cx="132" cy="394" r="2" style="fill:#000" class="net_45"/>
  <line x1="132" x2="157" y1="394" y2="394" class="net_45"/>
  <line x1="114" x2="132" y1="830.5" y2="830.5" class="net_45"/>
  <line x1="132" x2="132" y1="830.5" y2="482" class="net_45"/>
  <circle cx="132" cy="482" r="2" style="fill:#000" class="net_45"/>
  <line x1="132" x2="157" y1="482" y2="482" class="net_45"/>
  <line x1="114" x2="132" y1="830.5" y2="830.5" class="net_45"/>
  <line x1="132" x2="132" y1="830.5" y2="570" class="net_45"/>
  <circle cx="132" cy="570" r="2" style="fill:#000" class="net_45"/>
  <line x1="132" x2="157" y1="570" y2="570" class="net_45"/>
  <line x1="114" x2="132" y1="830.5" y2="830.5" class="net_45"/>
  <line x1="132" x2="132" y1="830.5" y2="697.5" class="net_45"/>
  <circle cx="132" cy="697.5" r="2" style="fill:#000" class="net_45"/>
  <line x1="132" x2="157" y1="697.5" y2="697.5" class="net_45"/>
  <line x1="114" x2="157" y1="830.5" y2="830.5" class="net_45"/>
  <line x1="114" x2="132" y1="830.5" y2="830.5" class="net_45"/>
  <line x1="132" x2="132" y1="830.5" y2="964" class="net_45"/>
  <circle cx="132" cy="964" r="2" style="fill:#000" class="net_45"/>
  <line x1="132" x2="157" y1="964" y2="964" class="net_45"/>
  <line x1="114" x2="132" y1="830.5" y2="830.5" class="net_45"/>
  <line x1="132" x2="132" y1="830.5" y2="1052" class="net_45"/>
  <circle cx="132" cy="1052" r="2" style="fill:#000" class="net_45"/>
  <line x1="132" x2="157" y1="1052" y2="1052" class="net_45"/>
  <line x1="114" x2="132" y1="830.5" y2="830.5" class="net_45"/>
  <line x1="132" x2="132" y1="830.5" y2="1140" class="net_45"/>
  <circle cx="132" cy="1140" r="2" style="fill:#000" class="net_45"/>
  <line x1="132" x2="157" y1="1140" y2="1140" class="net_45"/>
  <line x1="114" x2="132" y1="830.5" y2="830.5" class="net_45"/>
  <line x1="132" x2="132" y1="830.5" y2="1228" class="net_45"/>
  <circle cx="132" cy="1228" r="2" style="fill:#000" class="net_45"/>
  <line x1="132" x2="157" y1="1228" y2="1228" class="net_45"/>
  <line x1="114" x2="132" y1="830.5" y2="830.5" class="net_45"/>
  <line x1="132" x2="132" y1="830.5" y2="1316" class="net_45"/>
  <circle cx="132" cy="1316" r="2" style="fill:#000" class="net_45"/>
  <line x1="132" x2="157" y1="1316" y2="1316" class="net_45"/>
  <line x1="114" x2="132" y1="830.5" y2="830.5" class="net_45"/>
  <line x1="132" x2="132" y1="830.5" y2="1464" class="net_45"/>
  <line x1="132" x2="157" y1="1464" y2="1464" class="net_45"/>
  <line x1="114" x2="132" y1="830.5" y2="830.5" class="net_45"/>
  <line x1="132" x2="132" y1="830.5" y2="1376" class="net_45"/>
  <circle cx="132" cy="1376" r="2" style="fill:#000" class="net_45"/>
  <line x1="132" x2="157" y1="1376" y2="1376" class="net_45"/>
  <line x1="115" x2="167" y1="150" y2="150" class="net_23"/>
  <line x1="167" x2="167" y1="150" y2="135" class="net_23"/>
  <line x1="42" x2="84" y1="82" y2="82" class="net_46,47,48,49,50"/>
  <line x1="115" x2="167" y1="62" y2="62" class="net_24"/>
  <line x1="167" x2="167" y1="62" y2="47" class="net_24"/>
  <line x1="42" x2="84" y1="258" y2="258" class="net_53,54,55,56,57"/>
  <line x1="115" x2="167" y1="238" y2="238" class="net_25"/>
  <line x1="167" x2="167" y1="238" y2="223" class="net_25"/>
  <line x1="42" x2="84" y1="346" y2="346" class="net_60,61,62,63,64"/>
  <line x1="115" x2="167" y1="326" y2="326" class="net_26"/>
  <line x1="167" x2="167" y1="326" y2="311" class="net_26"/>
  <line x1="42" x2="84" y1="434" y2="434" class="net_67,68,69,70,71"/>
  <line x1="115" x2="167" y1="414" y2="414" class="net_27"/>
  <line x1="167" x2="167" y1="414" y2="399" class="net_27"/>
  <line x1="42" x2="84" y1="522" y2="522" class="net_74,75,76,77,78"/>
  <line x1="115" x2="167" y1="502" y2="502" class="net_28"/>
  <line x1="167" x2="167" y1="502" y2="487" class="net_28"/>
  <line x1="42" x2="84" y1="610" y2="610" class="net_81,82,83,84,85"/>
  <line x1="115" x2="167" y1="590" y2="590" class="net_29"/>
  <line x1="167" x2="167" y1="590" y2="575" class="net_29"/>
  <line x1="42" x2="62" y1="678" y2="678" class="net_88,89,90,91,92"/>
  <line x1="62" x2="62" y1="678" y2="763" class="net_88,89,90,91,92"/>
  <line x1="62" x2="84" y1="763" y2="763" class="net_88,89,90,91,92"/>
  <line x1="115" x2="167" y1="743" y2="743" class="net_30"/>
  <line x1="167" x2="167" y1="743" y2="702.5" class="net_30"/>
  <line x1="42" x2="84" y1="916" y2="916" class="net_95,96,97,98,99"/>
  <line x1="115" x2="167" y1="896" y2="896" class="net_31"/>
  <line x1="167" x2="167" y1="896" y2="835.5" class="net_31"/>
  <line x1="42" x2="84" y1="1004" y2="1004" class="net_102,103,104,105,106"/>
  <line x1="115" x2="167" y1="984" y2="984" class="net_32"/>
  <line x1="167" x2="167" y1="984" y2="969" class="net_32"/>
  <line x1="42" x2="84" y1="1092" y2="1092" class="net_109,110,111,112,113"/>
  <line x1="115" x2="167" y1="1072" y2="1072" class="net_33"/>
  <line x1="167" x2="167" y1="1072" y2="1057" class="net_33"/>
  <line x1="42" x2="84" y1="1180" y2="1180" class="net_116,117,118,119,120"/>
  <line x1="115" x2="167" y1="1160" y2="1160" class="net_34"/>
  <line x1="167" x2="167" y1="1160" y2="1145" class="net_34"/>
  <line x1="42" x2="84" y1="1268" y2="1268" class="net_123,124,125,126,127"/>
  <line x1="115" x2="167" y1="1248" y2="1248" class="net_35"/>
  <line x1="167" x2="167" y1="1248" y2="1233" class="net_35"/>
  <line x1="42" x2="84" y1="1356" y2="1356" class="net_130,131,132,133,134"/>
  <line x1="115" x2="167" y1="1336" y2="1336" class="net_36"/>
  <line x1="167" x2="167" y1="1336" y2="1321" class="net_36"/>
  <line x1="42" x2="84" y1="1532" y2="1532" class="net_137,138,139,140,141"/>
  <line x1="115" x2="167" y1="1512" y2="1512" class="net_37"/>
  <line x1="167" x2="167" y1="1512" y2="1469" class="net_37"/>
  <line x1="42" x2="84" y1="1444" y2="1444" class="net_144,145,146,147,148"/>
  <line x1="115" x2="167" y1="1424" y2="1424" class="net_38"/>
  <line x1="167" x2="167" y1="1424" y2="1381" class="net_38"/>
  <line x1="310" x2="345" y1="1056" y2="1056" class="net_7,8,9,10,11,12,13,14,15,16,17,18,19,20,21,22"/>
  <line x1="177" x2="304.5" y1="120" y2="120" class="net_7"/>
  <line x1="304.5" x2="304.5" y1="120" y2="1045.5" class="net_7"/>
  <line x1="177" x2="304.5" y1="32" y2="32" class="net_8"/>
  <line x1="304.5" x2="304.5" y1="32" y2="1065.5" class="net_8"/>
  <line x1="177" x2="287" y1="208" y2="208" class="net_9"/>
  <line x1="287" x2="287" y1="208" y2="1086" class="net_9"/>
  <line x1="287" x2="304" y1="1086" y2="1086" class="net_9"/>
  <line x1="177" x2="277" y1="296" y2="296" class="net_10"/>
  <line x1="277" x2="277" y1="296" y2="1106" class="net_10"/>
  <line x1="277" x2="304" y1="1106" y2="1106" class="net_10"/>
  <line x1="177" x2="267" y1="384" y2="384" class="net_11"/>
  <line x1="267" x2="267" y1="384" y2="1126" class="net_11"/>
  <line x1="267" x2="304" y1="1126" y2="1126" class="net_11"/>
  <line x1="177" x2="257" y1="472" y2="472" class="net_12"/>
  <line x1="257" x2="257" y1="472" y2="1146" class="net_12"/>
  <line x1="257" x2="304" y1="1146" y2="1146" class="net_12"/>
  <line x1="177" x2="247" y1="560" y2="560" class="net_13"/>
  <line x1="247" x2="247" y1="560" y2="1166" class="net_13"/>
  <line x1="247" x2="304" y1="1166" y2="1166" class="net_13"/>
  <line x1="177" x2="237" y1="687.5" y2="687.5" class="net_14"/>
  <line x1="237" x2="237" y1="687.5" y2="1186" class="net_14"/>
  <line x1="237" x2="304" y1="1186" y2="1186" class="net_14"/>
  <line x1="177" x2="227" y1="820.5" y2="820.5" class="net_15"/>
  <line x1="227" x2="227" y1="820.5" y2="1206" class="net_15"/>
  <line x1="227" x2="304" y1="1206" y2="1206" class="net_15"/>
  <line x1="177" x2="217" y1="954" y2="954" class="net_16"/>
  <line x1="217" x2="217" y1="954" y2="1226" class="net_16"/>
  <line x1="217" x2="304" y1="1226" y2="1226" class="net_16"/>
  <line x1="177" x2="207" y1="1042" y2="1042" class="net_17"/>
  <line x1="207" x2="207" y1="1042" y2="1246" class="net_17"/>
  <line x1="207" x2="304" y1="1246" y2="1246" class="net_17"/>
  <line x1="177" x2="197" y1="1130" y2="1130" class="net_18"/>
  <line x1="197" x2="197" y1="1130" y2="1266" class="net_18"/>
  <line x1="197" x2="304" y1="1266" y2="1266" class="net_18"/>
  <line x1="177" x2="187" y1="1218" y2="1218" class="net_19"/>
  <line x1="187" x2="187" y1="1218" y2="1286" class="net_19"/>
  <line x1="187" x2="304" y1="1286" y2="1286" class="net_19"/>
  <line x1="177" x2="304" y1="1306" y2="1306" class="net_20"/>
  <line x1="177" x2="304.5" y1="1454" y2="1454" class="net_21"/>
  <line x1="304.5" x2="304.5" y1="1454" y2="1326.5" class="net_21"/>
  <line x1="177" x2="304.5" y1="1366" y2="1366" class="net_22"/>
  <line x1="304.5" x2="304.5" y1="1366" y2="1346.5" class="net_22"/>
</svg>
